<?xml version="1.0" encoding="utf-8"?>
<!-- Generator: Adobe Illustrator 16.0.0, SVG Export Plug-In . SVG Version: 6.00 Build 0)  -->
<!DOCTYPE svg PUBLIC "-//W3C//DTD SVG 1.1//EN" "http://www.w3.org/Graphics/SVG/1.1/DTD/svg11.dtd">
<svg version="1.1" id="Layer_1" xmlns="http://www.w3.org/2000/svg" xmlns:xlink="http://www.w3.org/1999/xlink" x="0px" y="0px"
	 width="329.74px" height="56.589px" viewBox="-173.731 -0.179 329.74 56.589"
	 enable-background="new -173.731 -0.179 329.74 56.589" xml:space="preserve">
<rect x="4.719" y="-0.179" fill="#0095DA" width="151.291" height="22.707"/>
<g id="Guides_For_Artboard">
</g>
<path fill="#0095DA" d="M3.719,23.269c0-0.5,0.022-0.994,0.064-1.481"/>
<path fill="#0095DA" d="M156.01,7.713V37.6c0,7.075-5.469,12.81-12.219,12.81H16.937c-6.748,0-12.219-5.734-12.219-12.81V7.713"/>
<g>
	<path fill="#8ED8F8" d="M19.139,16.969v5.107h4.299v3.38h-4.299v7.9c0,2.167,0.588,3.307,2.315,3.307
		c0.771,0,1.359-0.11,1.764-0.221l0.073,3.454c-0.661,0.257-1.837,0.44-3.27,0.44c-1.654,0-3.05-0.551-3.895-1.47
		c-0.955-1.028-1.396-2.646-1.396-4.997v-8.414h-2.572v-3.38h2.572v-4.042L19.139,16.969z"/>
	<path fill="#8ED8F8" d="M31.671,17.079c0,1.36-0.992,2.425-2.572,2.425c-1.506,0-2.499-1.065-2.499-2.425
		c0-1.396,1.029-2.461,2.535-2.461C30.679,14.618,31.635,15.683,31.671,17.079z M26.858,39.97V22.076h4.557V39.97H26.858z"/>
	<path fill="#8ED8F8" d="M49.42,39.419c-0.956,0.44-2.829,0.918-5.071,0.918c-5.585,0-9.222-3.563-9.222-9.112
		c0-5.364,3.674-9.553,9.958-9.553c1.653,0,3.343,0.367,4.372,0.845l-0.808,3.38c-0.735-0.331-1.8-0.698-3.417-0.698
		c-3.454,0-5.511,2.535-5.475,5.806c0,3.674,2.389,5.769,5.475,5.769c1.58,0,2.683-0.331,3.564-0.698L49.42,39.419z"/>
	<path fill="#8ED8F8" d="M57.285,29.939h0.074c0.441-0.697,0.955-1.47,1.433-2.094l4.335-5.769h5.438l-6.614,7.312l7.569,10.582
		h-5.548l-5.144-7.899l-1.543,1.8v6.1h-4.52V13.882h4.52V29.939z"/>
	<path fill="#8ED8F8" d="M74.411,32.291c0.11,3.233,2.646,4.63,5.512,4.63c2.095,0,3.601-0.294,4.96-0.809l0.662,3.124
		c-1.543,0.624-3.676,1.102-6.246,1.102c-5.806,0-9.223-3.563-9.223-9.039c0-4.96,3.013-9.626,8.745-9.626
		c5.805,0,7.717,4.776,7.717,8.708c0,0.845-0.074,1.506-0.148,1.91H74.411z M82.273,29.131c0.037-1.654-0.697-4.373-3.711-4.373
		c-2.792,0-3.967,2.536-4.151,4.373H82.273z"/>
	<path fill="#8ED8F8" d="M95.357,16.969v5.107h4.299v3.38h-4.299v7.9c0,2.167,0.588,3.307,2.316,3.307
		c0.771,0,1.359-0.11,1.764-0.221l0.072,3.454c-0.66,0.257-1.836,0.44-3.27,0.44c-1.654,0-3.051-0.551-3.895-1.47
		c-0.955-1.028-1.396-2.646-1.396-4.997v-8.414h-2.572v-3.38h2.572v-4.042L95.357,16.969z"/>
	<path fill="#8ED8F8" d="M106.052,32.291c0.109,3.233,2.646,4.63,5.512,4.63c2.094,0,3.602-0.294,4.961-0.809l0.66,3.124
		c-1.543,0.624-3.674,1.102-6.246,1.102c-5.805,0-9.223-3.563-9.223-9.039c0-4.96,3.014-9.626,8.746-9.626
		c5.805,0,7.715,4.776,7.715,8.708c0,0.845-0.072,1.506-0.146,1.91H106.052z M113.916,29.131c0.037-1.654-0.699-4.373-3.711-4.373
		c-2.793,0-3.969,2.536-4.152,4.373H113.916z"/>
	<path fill="#8ED8F8" d="M121.818,27.845c0-2.425-0.035-4.152-0.146-5.769h3.932l0.146,3.417h0.148
		c0.881-2.536,2.975-3.821,4.887-3.821c0.439,0,0.697,0.037,1.064,0.11v4.262c-0.367-0.073-0.771-0.147-1.322-0.147
		c-2.168,0-3.639,1.396-4.041,3.417c-0.074,0.404-0.148,0.882-0.148,1.396v9.26h-4.52V27.845z"/>
	<path fill="#8ED8F8" d="M144.638,39.97l-0.293-1.984h-0.109c-1.104,1.396-2.977,2.389-5.291,2.389
		c-3.602,0-5.623-2.609-5.623-5.328c0-4.52,4.006-6.797,10.619-6.761v-0.294c0-1.176-0.479-3.123-3.637-3.123
		c-1.764,0-3.602,0.551-4.814,1.323l-0.881-2.939c1.322-0.808,3.637-1.58,6.467-1.58c5.73,0,7.385,3.637,7.385,7.532v6.467
		c0,1.616,0.074,3.196,0.258,4.299H144.638z M144.051,31.225c-3.195-0.073-6.246,0.625-6.246,3.344c0,1.764,1.141,2.572,2.572,2.572
		c1.801,0,3.123-1.176,3.527-2.462c0.111-0.331,0.146-0.698,0.146-0.992V31.225z"/>
</g>
<rect id="_x3C_Slice_x3E_" x="-545.49" y="-573.295" fill="none" width="1500" height="172"/>
<rect id="_x3C_Slice_x3E__1_" x="-157.49" y="-549.295" fill="none" width="10" height="118"/>
<rect id="_x3C_Slice_x3E__2_" x="-489.49" y="-555.295" fill="none" width="1560" height="158"/>
<g id="Layer_1_1_">
	<g>
		<path fill="#8ED8F8" d="M-143.577,23.759V3.013c12.138,0,22.165,9.034,23.726,20.746H-143.577L-143.577,23.759z"/>
		<path fill="#0095DA" d="M-170.519,23.759c1.581-13.479,13.039-23.938,26.943-23.938c2.818,0,5.619,0.44,8.303,1.3l-7.276,22.636
			h-27.969V23.759z"/>
		<path fill="#8ED8F8" d="M-123.075,30.141c-1.375,8.903-8.41,15.936-17.31,17.311V30.141H-123.075z"/>
		<path fill="#0C365E" d="M-146.768,57.106c-14.197-1.486-25.476-12.767-26.962-26.965h26.961L-146.768,57.106L-146.768,57.106z"/>
		<path fill="#0C365E" d="M-105.484,14.176v4.774h-2.928v5.043h2.928V33c0,3.109,0.631,5.227,1.892,6.531
			c1.08,1.127,2.927,1.893,5.134,1.893c1.938,0,3.558-0.226,4.459-0.586l-0.044-5.18c-0.495,0.09-1.17,0.18-2.027,0.18
			c-2.072,0-2.702-1.216-2.702-3.871v-7.975h4.909V18.95h-4.909v-6.305L-105.484,14.176L-105.484,14.176z M-88.991,40.974h6.846
			V29.803c0-0.539,0.045-1.08,0.135-1.531c0.45-2.118,2.162-3.467,4.685-3.467c0.766,0,1.351,0.089,1.847,0.179v-6.44
			c-0.495-0.091-0.812-0.091-1.442-0.091c-2.117,0-4.818,1.351-5.945,4.549h-0.18l-0.225-4.054h-5.9
			c0.09,1.892,0.18,4.011,0.18,7.252L-88.991,40.974L-88.991,40.974z M-52.77,40.974c-0.226-1.216-0.314-3.242-0.314-5.36v-7.657
			c0-5.18-2.342-9.503-9.686-9.503c-4.008,0-7.025,1.081-8.557,1.938l1.261,4.414c1.44-0.9,3.828-1.666,6.08-1.666
			c3.378,0,4.009,1.666,4.009,2.838v0.316c-7.792-0.046-12.927,2.701-12.927,8.421c0,3.513,2.658,6.755,7.116,6.755
			c2.612,0,4.864-0.945,6.306-2.7h0.136l0.405,2.205H-52.77L-52.77,40.974z M-59.751,32.957c0,0.404-0.045,0.812-0.134,1.17
			c-0.451,1.396-1.847,2.523-3.559,2.523c-1.53,0-2.701-0.856-2.701-2.611c0-2.657,2.792-3.514,6.395-3.469L-59.751,32.957
			L-59.751,32.957z M-46.77,40.974h6.846V28.272c0-0.631,0.09-1.305,0.269-1.711c0.45-1.262,1.576-2.568,3.469-2.568
			c2.476,0,3.468,1.938,3.468,4.774v12.207h6.846V27.913c0-6.485-3.377-9.458-7.882-9.458c-3.648,0-5.9,2.118-6.801,3.513h-0.135
			l-0.314-3.018h-5.945c0.09,1.937,0.181,4.28,0.181,7.026V40.974L-46.77,40.974z M-20.729,39.892
			c1.666,0.902,4.233,1.532,7.115,1.532c6.306,0,9.548-3.019,9.548-7.115c-0.045-3.244-1.802-5.359-5.989-6.802
			c-2.703-0.946-3.559-1.485-3.559-2.521c0-1.126,0.947-1.804,2.613-1.804c1.891,0,3.783,0.722,4.773,1.263l1.216-4.73
			c-1.351-0.675-3.648-1.261-6.215-1.261c-5.45,0-8.963,3.108-8.963,7.206c-0.045,2.611,1.712,5.091,6.26,6.62
			c2.567,0.857,3.243,1.397,3.243,2.522c0,1.127-0.856,1.849-2.928,1.849c-2.027,0-4.639-0.902-5.899-1.666L-20.729,39.892z"/>
	</g>
</g>
</svg>
